<svg width="35" height="35" viewBox="0 0 35 35" fill="none" xmlns="http://www.w3.org/2000/svg">
<path d="M10.9375 23.3327H13.125" stroke="white" stroke-width="2" stroke-linecap="round" stroke-linejoin="round"/>
<path d="M16.0417 18.9577H10.9375" stroke="white" stroke-width="2" stroke-linecap="round" stroke-linejoin="round"/>
<path d="M13.1276 13.8535V9.47852" stroke="white" stroke-width="2" stroke-linecap="round" stroke-linejoin="round"/>
<path d="M15.3125 11.6667H10.9375" stroke="white" stroke-width="2" stroke-linecap="round" stroke-linejoin="round"/>
<path d="M19.5973 30.625L17.8464 27.9983C17.3011 27.1802 17.409 26.091 18.1042 25.3958V25.3958V25.3958C18.491 25.009 19.0156 24.7917 19.5626 24.7917C20.1097 24.7917 20.6343 25.009 21.0211 25.3958L21.875 26.2497V19.6875C21.875 18.4794 22.8543 17.5 24.0625 17.5V17.5C25.2706 17.5 26.25 18.4794 26.25 19.6875V22.9697L29.636 23.5219C31.1839 23.7743 32.2551 25.2058 32.0606 26.7621L31.5778 30.625" stroke="white" stroke-width="2" stroke-linecap="round" stroke-linejoin="round"/>
<path d="M29.1693 12.3958H24.0651C22.4543 12.3958 21.1484 11.09 21.1484 9.47917V4.375" stroke="white" stroke-width="2" stroke-linecap="round" stroke-linejoin="round"/>
<path d="M29.1693 14.5833V12.4094C29.1693 11.2491 28.7083 10.1363 27.8879 9.31583L24.2284 5.65641C23.408 4.83594 22.2952 4.375 21.1349 4.375H10.2109C7.79469 4.375 5.83594 6.33375 5.83594 8.75V26.25C5.83594 28.6662 7.79469 30.625 10.2109 30.625H13.1276" stroke="white" stroke-width="2" stroke-linecap="round" stroke-linejoin="round"/>
</svg>
