<svg width="35" height="35" viewBox="0 0 35 35" fill="none" xmlns="http://www.w3.org/2000/svg">
<path d="M30.625 15.6225V27.6916C30.625 29.3119 29.3548 30.6244 27.7871 30.6244H7.21292C5.64521 30.6244 4.375 29.3119 4.375 27.6931V10.2223C4.375 8.60352 5.64521 7.29102 7.21292 7.29102H15.0165" stroke="white" stroke-width="2" stroke-linecap="round" stroke-linejoin="round"/>
<path fill-rule="evenodd" clip-rule="evenodd" d="M26.3404 5.11055C27.3204 4.13055 28.91 4.12909 29.89 5.11055V5.11055C30.87 6.09055 30.87 7.68013 29.8885 8.66013L21.4681 17.0733C21.1954 17.346 20.825 17.4991 20.4385 17.4991H17.5V14.5605C17.5 14.1741 17.6531 13.8037 17.9273 13.5295L26.3404 5.11055V5.11055Z" stroke="white" stroke-width="2" stroke-linecap="round" stroke-linejoin="round"/>
<path d="M11.6667 17.5007H8.75" stroke="white" stroke-width="2" stroke-linecap="round" stroke-linejoin="round"/>
<path d="M8.75 23.3327H26.25" stroke="white" stroke-width="2" stroke-linecap="round" stroke-linejoin="round"/>
<path d="M28.3328 10.2078L24.7891 6.66406" stroke="white" stroke-width="2" stroke-linecap="round" stroke-linejoin="round"/>
</svg>
