<svg width="35" height="35" viewBox="0 0 35 35" fill="none" xmlns="http://www.w3.org/2000/svg">
<path fill-rule="evenodd" clip-rule="evenodd" d="M2.5 25.4081V24.7991C2.50494 23.0665 3.9082 21.6631 5.64072 21.6582H9.85835C11.5909 21.6631 12.9941 23.0665 12.9991 24.7991V25.4081C12.9991 25.8223 12.6633 26.1581 12.2491 26.1581H3.24993C2.83576 26.1581 2.5 25.8223 2.5 25.4081Z" stroke="white" stroke-width="2" stroke-linecap="round" stroke-linejoin="round"/>
<path fill-rule="evenodd" clip-rule="evenodd" d="M18.8085 12.658V14.9065C18.8085 15.1959 18.9751 15.4596 19.2365 15.5838C19.4979 15.7081 19.8075 15.6708 20.032 15.488L23.507 12.658H27.0578C28.7145 12.658 30.0575 11.3149 30.0575 9.65811V5.15812C30.0575 3.50131 28.7145 2.1582 27.0578 2.1582H17.5075C15.8508 2.1582 14.5078 3.50131 14.5078 5.15812V9.658C14.5078 11.3148 15.8508 12.6579 17.5075 12.6579L18.8085 12.658Z" stroke="white" stroke-width="2" stroke-linecap="round" stroke-linejoin="round"/>
<ellipse cx="7.74973" cy="14.9081" rx="2.99973" ry="2.99992" stroke="white" stroke-width="2" stroke-linecap="round" stroke-linejoin="round"/>
<path fill-rule="evenodd" clip-rule="evenodd" d="M22.0078 31.4081V30.7991C22.0128 29.0665 23.416 27.6631 25.1485 27.6582H29.3662C31.0987 27.6631 32.5019 29.0665 32.5069 30.7991V31.4081C32.5069 31.8223 32.1711 32.1581 31.7569 32.1581H22.7577C22.3436 32.1581 22.0078 31.8223 22.0078 31.4081Z" stroke="white" stroke-width="2" stroke-linecap="round" stroke-linejoin="round"/>
<ellipse cx="27.2497" cy="20.9081" rx="2.99973" ry="2.99992" stroke="white" stroke-width="2" stroke-linecap="round" stroke-linejoin="round"/>
</svg>
