<svg width="26" height="26" viewBox="0 0 26 26" fill="none" xmlns="http://www.w3.org/2000/svg">
<g clip-path="url(#clip0_1645_2683)">
<mask id="mask0_1645_2683" style="mask-type:luminance" maskUnits="userSpaceOnUse" x="0" y="0" width="26" height="26">
<path d="M0 1.90735e-06H26V26H0V1.90735e-06Z" fill="white"/>
</mask>
<g mask="url(#mask0_1645_2683)">
<path d="M9.56206 4.28184H8.42969V5.03183C8.42969 5.35729 8.69355 5.62109 9.019 5.62109H16.9744C17.2998 5.62109 17.5636 5.35729 17.5636 5.03183V4.28184H9.62319" stroke="#002F5B" stroke-width="0.761719" stroke-miterlimit="10" stroke-linecap="round" stroke-linejoin="round"/>
<path d="M17.5636 4.28125V1.97654C17.5636 1.81379 17.4317 1.68186 17.269 1.68186H14.5313C14.4068 1.68186 14.2987 1.59289 14.2786 1.47005C14.1774 0.853313 13.642 0.382774 12.9966 0.382774C12.3513 0.382774 11.8159 0.853313 11.7147 1.47005C11.6946 1.59289 11.5866 1.68186 11.4621 1.68186H8.72437C8.56162 1.68186 8.42969 1.81379 8.42969 1.97654V4.28125" stroke="#002F5B" stroke-width="0.761719" stroke-miterlimit="10" stroke-linecap="round" stroke-linejoin="round"/>
<path d="M4.27344 19.5586V25.256C4.27344 25.4576 4.4369 25.6211 4.6385 25.6211H21.3671C21.5687 25.6211 21.7322 25.4576 21.7322 25.256V2.34165C21.7322 2.14 21.5687 1.97658 21.3671 1.97658H17.5697" stroke="#002F5B" stroke-width="0.761719" stroke-miterlimit="10" stroke-linecap="round" stroke-linejoin="round"/>
<path d="M8.43582 1.97559H4.63855C4.4369 1.97559 4.27344 2.13905 4.27344 2.34066L4.27344 20.125" stroke="#002F5B" stroke-width="0.761719" stroke-miterlimit="10" stroke-linecap="round" stroke-linejoin="round"/>
<path d="M20.4632 10.625V3.65283C20.4632 3.42751 20.2805 3.2448 20.0551 3.2448H17.5703" stroke="#002F5B" stroke-width="0.761719" stroke-miterlimit="10" stroke-linecap="round" stroke-linejoin="round"/>
<path d="M8.43192 3.24612H5.94709C5.72177 3.24612 5.53906 3.42883 5.53906 3.65414V23.9435C5.53906 24.1689 5.72177 24.3516 5.94709 24.3516H15.2452C16.4378 24.3516 17.4047 23.3847 17.4047 22.1921V21.7059C17.4047 21.4804 17.5875 21.2976 17.8129 21.2976H18.2992C19.4918 21.2976 20.4586 20.3308 20.4586 19.1381V10.2348" stroke="#002F5B" stroke-width="0.761719" stroke-miterlimit="10" stroke-linecap="round" stroke-linejoin="round"/>
<path d="M15.3531 8.51623H13.9995C13.9239 8.51623 13.8626 8.45499 13.8626 8.37943V7.0258C13.8626 6.95024 13.8014 6.88895 13.7258 6.88895H12.2719C12.1963 6.88895 12.1351 6.95024 12.1351 7.0258V8.37943C12.1351 8.45499 12.0738 8.51623 11.9982 8.51623H10.6446C10.5691 8.51623 10.5078 8.57752 10.5078 8.65309V10.107C10.5078 10.1826 10.5691 10.2439 10.6446 10.2439H11.9982C12.0738 10.2439 12.1351 10.3051 12.1351 10.3807V11.7342C12.1351 11.8098 12.1963 11.8711 12.2719 11.8711H13.7258C13.8014 11.8711 13.8626 11.8098 13.8626 11.7342V10.3807C13.8626 10.3051 13.9239 10.2439 13.9995 10.2439H15.3531C15.4287 10.2439 15.4899 10.1826 15.4899 10.107V8.65309C15.4899 8.57752 15.4287 8.51623 15.3531 8.51623Z" stroke="#002F5B" stroke-width="0.761719" stroke-miterlimit="10" stroke-linecap="round" stroke-linejoin="round"/>
<path d="M9.21426 15.1562H7.92411C7.83657 15.1562 7.76562 15.0853 7.76562 14.9978V13.7076C7.76562 13.6201 7.83657 13.5491 7.92411 13.5491H9.21426C9.30181 13.5491 9.37275 13.6201 9.37275 13.7076V14.9978C9.37275 15.0853 9.30181 15.1562 9.21426 15.1562Z" stroke="#002F5B" stroke-width="0.761719" stroke-miterlimit="10" stroke-linecap="round" stroke-linejoin="round"/>
<path d="M9.21426 18.6094H7.92411C7.83657 18.6094 7.76562 18.5384 7.76562 18.4509V17.1607C7.76562 17.0732 7.83657 17.0023 7.92411 17.0023H9.21426C9.30181 17.0023 9.37275 17.0732 9.37275 17.1607V18.4509C9.37275 18.5384 9.30181 18.6094 9.21426 18.6094Z" stroke="#002F5B" stroke-width="0.761719" stroke-miterlimit="10" stroke-linecap="round" stroke-linejoin="round"/>
<path d="M9.21426 22.0664H7.92411C7.83657 22.0664 7.76562 21.9955 7.76562 21.9079V20.6178C7.76562 20.5302 7.83657 20.4593 7.92411 20.4593H9.21426C9.30181 20.4593 9.37275 20.5302 9.37275 20.6178V21.9079C9.37275 21.9955 9.30181 22.0664 9.21426 22.0664Z" stroke="#002F5B" stroke-width="0.761719" stroke-miterlimit="10" stroke-linecap="round" stroke-linejoin="round"/>
<path d="M10.7656 14.3047H18.2355" stroke="#002F5B" stroke-width="0.761719" stroke-miterlimit="10" stroke-linecap="round" stroke-linejoin="round"/>
<path d="M10.7656 17.832H18.2355" stroke="#002F5B" stroke-width="0.761719" stroke-miterlimit="10" stroke-linecap="round" stroke-linejoin="round"/>
<path d="M10.7656 21.3594H17.6016" stroke="#002F5B" stroke-width="0.761719" stroke-miterlimit="10" stroke-linecap="round" stroke-linejoin="round"/>
<path d="M20.4634 19.1381C20.4634 20.5208 19.9142 21.8469 18.9365 22.8246C17.9588 23.8023 16.6327 24.3516 15.25 24.3516" stroke="#002F5B" stroke-width="0.761719" stroke-miterlimit="10" stroke-linecap="round" stroke-linejoin="round"/>
</g>
</g>
<defs>
<clipPath id="clip0_1645_2683">
<rect width="26" height="26" fill="white"/>
</clipPath>
</defs>
</svg>
