<svg width="28" height="28" viewBox="0 0 28 28" fill="none" xmlns="http://www.w3.org/2000/svg">
<path d="M16.3359 22.1667C20.7354 22.1667 22.9358 22.1667 24.3019 20.7993C25.6681 19.432 25.6693 17.2328 25.6693 12.8333C25.6693 8.43383 25.6693 6.2335 24.3019 4.86733C22.9346 3.50117 20.7354 3.5 16.3359 3.5H11.6693C7.26977 3.5 5.06944 3.5 3.70327 4.86733C2.3371 6.23467 2.33594 8.43383 2.33594 12.8333C2.33594 17.2328 2.33594 19.4332 3.70327 20.7993C4.4651 21.5623 5.48594 21.8995 7.0026 22.0477" stroke="#004F97" stroke-width="1.6" stroke-linecap="round" stroke-linejoin="round"/>
<path d="M10.5 12.8333L13.125 15.1667L17.5 10.5" stroke="#004F97" stroke-width="1.6" stroke-linecap="round" stroke-linejoin="round"/>
<path d="M16.3341 22.168C14.8921 22.168 13.3031 22.7513 11.8529 23.5038C9.52194 24.7136 8.35644 25.3191 7.78244 24.933C7.20844 24.5468 7.31694 23.3521 7.5351 20.9616L7.5841 20.418" stroke="#004F97" stroke-width="1.6" stroke-linecap="round"/>
</svg>
