<svg width="98" height="98" viewBox="0 0 98 98" fill="none" xmlns="http://www.w3.org/2000/svg">
<path d="M79.0791 43.1024C77.9001 42.0765 76.6905 41.0046 76.3842 40.1012C76.0627 39.1213 76.4302 37.4829 76.7823 35.9058C77.3335 33.4559 77.8848 30.9294 76.4914 29.0155C75.0827 27.0862 72.495 26.8412 69.9839 26.6115C68.3914 26.4584 66.7378 26.3053 65.9109 25.7081C65.1147 25.1263 64.4563 23.6104 63.8285 22.1558C62.8639 19.9355 61.792 17.4091 59.4799 16.6588C57.2597 15.9392 55.0548 17.2407 52.9265 18.5115C51.5178 19.3537 50.0479 20.2112 48.976 20.2112C47.9042 20.2112 46.4343 19.3537 45.0256 18.5115C42.8972 17.256 40.677 15.9392 38.4721 16.6588C36.1753 17.4091 35.0882 19.9202 34.1235 22.1558C33.4958 23.6104 32.8527 25.1263 32.0411 25.7081C31.2296 26.3053 29.5759 26.4584 27.9682 26.6115C25.457 26.8412 22.854 27.0862 21.4607 29.0155C20.0673 30.9294 20.6338 33.4559 21.1697 35.9058C21.5219 37.4829 21.8894 39.1213 21.5678 40.1012C21.2769 41.0046 20.052 42.0765 18.873 43.1024C17.0355 44.7101 14.9531 46.5322 14.9531 48.9974C14.9531 51.4626 17.0355 53.2847 18.873 54.8925C20.052 55.9184 21.2616 56.9902 21.5678 57.9089C21.8894 58.8889 21.5219 60.5272 21.1697 62.1044C20.6185 64.5542 20.0673 67.0807 21.4607 68.9947C22.8693 70.924 25.457 71.169 27.9682 71.3986C29.5606 71.5518 31.2143 71.7049 32.0411 72.302C32.8374 72.8839 33.4958 74.3998 34.1235 75.8544C35.0882 78.0746 36.16 80.6011 38.4721 81.3513C40.677 82.071 42.8972 80.7695 45.0256 79.4986C46.4343 78.6564 47.9042 77.799 48.976 77.799C50.0479 77.799 51.5178 78.6564 52.9265 79.4986C54.6414 80.5092 56.4023 81.5504 58.1784 81.5504C58.6225 81.5504 59.0512 81.4891 59.4953 81.3513C61.792 80.6011 62.8792 78.0899 63.8438 75.8544C64.4716 74.3998 65.1147 72.8839 65.9262 72.302C66.7378 71.7049 68.3914 71.5518 69.9992 71.3986C72.5103 71.169 75.1133 70.924 76.5067 68.9947C77.9001 67.0807 77.3335 64.5542 76.7976 62.1044C76.4455 60.5272 76.078 58.8889 76.3995 57.9089C76.6905 57.0055 77.9154 55.9337 79.0944 54.9078C80.9318 53.3 83.0142 51.4779 83.0142 49.0127C82.9989 46.5322 80.9165 44.7101 79.0791 43.1024ZM77.1192 52.6569C75.6339 53.9585 74.1027 55.2906 73.5668 56.9749C73.0003 58.7357 73.4443 60.7722 73.8884 62.7321C74.2712 64.4471 74.6999 66.3917 74.1028 67.2338C73.4903 68.076 71.4844 68.275 69.7083 68.4281C67.7177 68.6119 65.6506 68.8109 64.1654 69.8828C62.7107 70.9393 61.8992 72.8379 61.103 74.6601C60.3987 76.2984 59.5871 78.1665 58.5765 78.5033C57.6425 78.8096 55.9429 77.8143 54.4424 76.9262C52.6815 75.885 50.8594 74.8132 48.976 74.8132C47.0927 74.8132 45.2706 75.885 43.5097 76.9262C42.0091 77.8143 40.3095 78.8096 39.3755 78.5033C38.3496 78.1665 37.5534 76.3137 36.8491 74.6601C36.0681 72.8379 35.2566 70.9393 33.7867 69.8828C32.3167 68.8109 30.2497 68.6119 28.2438 68.4281C26.4829 68.2597 24.4771 68.076 23.8493 67.2185C23.2521 66.3917 23.6809 64.4471 24.0637 62.7168C24.5077 60.7416 24.9518 58.7051 24.3852 56.9596C23.834 55.2753 22.3028 53.9278 20.8329 52.6416C19.4089 51.3861 17.9236 50.0999 17.9236 48.9821C17.9236 47.8643 19.3936 46.5781 20.8329 45.3226C22.3181 44.0211 23.8493 42.6889 24.3852 41.0046C24.9518 39.2438 24.5077 37.2073 24.0637 35.2474C23.6809 33.5325 23.2521 31.5879 23.8493 30.7457C24.4618 29.9036 26.4676 29.7045 28.2438 29.5514C30.2343 29.3676 32.3014 29.1686 33.7867 28.0968C35.2413 27.0402 36.0528 25.1416 36.8491 23.3195C37.5534 21.6811 38.3649 19.8131 39.3755 19.4762C40.3248 19.17 42.0091 20.1652 43.5097 21.0533C45.2706 22.0945 47.0927 23.1663 48.976 23.1663C50.8594 23.1663 52.6815 22.0945 54.4424 21.0533C55.9429 20.1652 57.6425 19.17 58.5765 19.4762C59.6024 19.8131 60.3987 21.6658 61.103 23.3195C61.8839 25.1416 62.6954 27.0402 64.1654 28.0968C65.6353 29.1686 67.7024 29.3676 69.7083 29.5514C71.4691 29.7198 73.475 29.9036 74.1028 30.7457C74.6999 31.5725 74.2712 33.5171 73.8884 35.2474C73.4443 37.2226 73.0003 39.2591 73.5668 41.0046C74.1181 42.6889 75.6492 44.0364 77.1192 45.3226C78.5432 46.5781 80.0284 47.8643 80.0284 48.9821C80.0284 50.1152 78.5585 51.4014 77.1192 52.6569Z" fill="#004F97"/>
<path d="M49.0032 28.1445C37.504 28.1445 28.1484 37.5001 28.1484 48.9993C28.1484 60.4984 37.504 69.854 49.0032 69.854C60.5024 69.854 69.8579 60.4984 69.8579 48.9993C69.8579 37.5001 60.5024 28.1445 49.0032 28.1445ZM49.0032 66.8835C39.1423 66.8835 31.1189 58.8601 31.1189 48.9993C31.1189 39.1384 39.1423 31.115 49.0032 31.115C58.864 31.115 66.8874 39.1384 66.8874 48.9993C66.8874 58.8601 58.864 66.8835 49.0032 66.8835Z" fill="#004F97"/>
<path d="M57.724 40.8075L44.4792 54.0522L40.2685 49.8415C39.6866 49.2596 38.7526 49.2596 38.1708 49.8415C37.5889 50.4233 37.5889 51.3573 38.1708 51.9392L43.4227 57.1911C43.7136 57.4821 44.0964 57.6199 44.4792 57.6199C44.862 57.6199 45.2448 57.4821 45.5358 57.1911L59.8217 42.9052C60.4036 42.3234 60.4036 41.3893 59.8217 40.8075C59.2399 40.2256 58.3058 40.2256 57.724 40.8075Z" fill="#004F97"/>
<path d="M49.0009 8.6665C49.8277 8.6665 50.4861 8.00809 50.4861 7.18125V1.48525C50.4861 0.658409 49.8124 0 49.0009 0C48.174 0 47.5156 0.658409 47.5156 1.48525V7.18125C47.5156 7.99278 48.174 8.6665 49.0009 8.6665Z" fill="#004F97"/>
<path d="M26.7965 13.5221C27.0721 13.9967 27.5774 14.257 28.0827 14.257C28.3277 14.257 28.588 14.1958 28.8177 14.058C29.522 13.6445 29.767 12.7411 29.3689 12.0368L26.5209 7.10639C26.1075 6.40205 25.2041 6.15706 24.4997 6.57048C23.7954 6.9839 23.5504 7.8873 23.9485 8.59164L26.7965 13.5221Z" fill="#004F97"/>
<path d="M7.10909 26.5348L12.0395 29.3828C12.2692 29.5206 12.5295 29.5819 12.7745 29.5819C13.2951 29.5819 13.7851 29.3216 14.0607 28.8469C14.4741 28.1426 14.2291 27.2238 13.5094 26.8257L8.57903 23.9777C7.89 23.549 6.97129 23.794 6.55787 24.4983C6.15976 25.218 6.40475 26.1214 7.10909 26.5348Z" fill="#004F97"/>
<path d="M8.6665 48.997C8.6665 48.1701 8.00809 47.5117 7.18125 47.5117H1.48525C0.658409 47.5117 0 48.1854 0 48.997C0 49.8238 0.658409 50.4822 1.48525 50.4822H7.18125C7.99278 50.4822 8.6665 49.8238 8.6665 48.997Z" fill="#004F97"/>
<path d="M12.0349 68.6271L7.10444 71.4751C6.40009 71.8885 6.1551 72.7919 6.56852 73.4963C6.84414 73.971 7.34943 74.2313 7.85472 74.2313C8.09971 74.2313 8.36001 74.17 8.58969 74.0322L13.5201 71.1842C14.2244 70.7708 14.4694 69.8674 14.0713 69.163C13.6579 68.4587 12.7392 68.2137 12.0349 68.6271Z" fill="#004F97"/>
<path d="M28.8278 83.941C28.1234 83.5276 27.2047 83.7726 26.8066 84.4922L23.9586 89.4227C23.5452 90.127 23.7902 91.0457 24.5098 91.4438C24.7395 91.5816 24.9998 91.6429 25.2448 91.6429C25.7654 91.6429 26.2554 91.3826 26.531 90.9079L29.379 85.9775C29.7771 85.2578 29.5474 84.3391 28.8278 83.941Z" fill="#004F97"/>
<path d="M49.0009 89.3301C48.174 89.3301 47.5156 89.9885 47.5156 90.8153V96.5113C47.5156 97.3382 48.174 97.9966 49.0009 97.9966C49.8277 97.9966 50.4861 97.3382 50.4861 96.5113V90.8153C50.4861 90.0038 49.8277 89.3301 49.0009 89.3301Z" fill="#004F97"/>
<path d="M71.1928 84.4763C70.7793 83.7719 69.8759 83.5269 69.1716 83.9251C68.4673 84.3385 68.2223 85.2419 68.6204 85.9462L71.4684 90.8766C71.744 91.3513 72.2493 91.6116 72.7546 91.6116C72.9996 91.6116 73.2599 91.5504 73.4895 91.4125C74.1939 90.9991 74.4389 90.0957 74.0408 89.3914L71.1928 84.4763Z" fill="#004F97"/>
<path d="M90.8946 71.4609L85.9641 68.6129C85.2598 68.1995 84.3411 68.4445 83.943 69.1641C83.5296 69.8685 83.7745 70.7872 84.4942 71.1853L89.4246 74.0333C89.6543 74.1711 89.9146 74.2323 90.1596 74.2323C90.6802 74.2323 91.1702 73.972 91.4458 73.4974C91.8439 72.7777 91.5989 71.8743 90.8946 71.4609Z" fill="#004F97"/>
<path d="M96.5172 47.5117H90.8212C89.9943 47.5117 89.3359 48.1701 89.3359 48.997C89.3359 49.8238 89.9943 50.4822 90.8212 50.4822H96.5172C97.344 50.4822 98.0024 49.8238 98.0024 48.997C98.0024 48.1701 97.344 47.5117 96.5172 47.5117Z" fill="#004F97"/>
<path d="M85.2113 29.5679C85.4562 29.5679 85.7165 29.5067 85.9462 29.3689L90.8766 26.5209C91.581 26.1075 91.826 25.2041 91.4279 24.4997C91.0144 23.7954 90.111 23.5504 89.4067 23.9485L84.4763 26.7965C83.7719 27.2099 83.5269 28.1133 83.9251 28.8177C84.2007 29.2923 84.706 29.5679 85.2113 29.5679Z" fill="#004F97"/>
<path d="M69.1671 14.0574C69.3968 14.1952 69.6571 14.2565 69.9021 14.2565C70.4227 14.2565 70.9126 13.9962 71.1882 13.5215L74.0362 8.59109C74.4497 7.88675 74.2047 6.96804 73.485 6.56993C72.7807 6.15651 71.862 6.4015 71.4639 7.12115L68.6159 12.0516C68.2178 12.7406 68.4474 13.6593 69.1671 14.0574Z" fill="#004F97"/>
</svg>
