<svg width="101" height="101" viewBox="0 0 101 101" fill="none" xmlns="http://www.w3.org/2000/svg">
<path d="M34.9922 38.5567L45.7012 48.9102" stroke="#004F97" stroke-width="2.5" stroke-miterlimit="10" stroke-linecap="round" stroke-linejoin="round"/>
<path d="M58.9297 47.4433V68.0625" stroke="#004F97" stroke-width="2.5" stroke-miterlimit="10" stroke-linecap="round" stroke-linejoin="round"/>
<path d="M27.5454 68.0645C26.1713 67.562 24.8778 66.7705 23.758 65.688C19.475 61.547 19.3596 54.718 23.5006 50.435L46.1382 27.0201C50.279 22.7371 57.1078 22.6218 61.391 26.7628C62.3138 27.6549 63.0432 28.6719 63.5782 29.7612" stroke="#004F97" stroke-width="2.5" stroke-miterlimit="10" stroke-linecap="round" stroke-linejoin="round"/>
<path d="M58.2557 46.4884H74.54C80.4974 46.4884 85.327 51.318 85.327 57.2754C85.327 63.2329 80.4974 68.0625 74.54 68.0625H41.9714C40.8119 68.0625 39.6953 67.8795 38.6484 67.541" stroke="#004F97" stroke-width="2.5" stroke-miterlimit="10" stroke-linecap="round" stroke-linejoin="round"/>
<path d="M23.1293 9.40545C21.5463 10.7203 15.8876 15.2549 14.4458 16.7978C-4.0292 36.5719 -2.97625 67.579 16.7978 86.0542C36.5718 104.529 67.579 103.476 86.0542 83.7022C104.529 63.928 103.476 32.9208 83.702 14.4458C66.9707 -1.1864 42.1973 -2.838 23.7779 9.00261M76.3118 17.2602L19.1042 78.4899C4.53483 62.457 4.47764 37.6579 19.5298 21.5477C34.5817 5.43755 59.3273 3.81218 76.3118 17.2602ZM66.3957 89.0794C52.6424 94.7878 36.407 92.9144 24.1882 83.2398L81.3957 22.0101C95.965 38.043 96.0221 62.8421 80.9702 78.9523C73.7145 85.7677 70.6231 86.6321 67.8339 88.4504C67.3577 88.6692 66.8784 88.8788 66.3957 89.0794Z" stroke="#004F97" stroke-width="2.5" stroke-miterlimit="10" stroke-linecap="round" stroke-linejoin="round"/>
</svg>
