<svg width="74" height="101" viewBox="0 0 74 101" fill="none" xmlns="http://www.w3.org/2000/svg">
<path d="M42.5391 93.4167V95.471C42.5391 97.557 44.2301 99.248 46.3161 99.248C48.4021 99.248 50.0932 97.557 50.0932 95.471V93.4167H42.5391Z" stroke="#004F97" stroke-width="1.81087" stroke-miterlimit="10" stroke-linecap="round" stroke-linejoin="round"/>
<path d="M20.8084 65.0453H15.2891V92.459H20.8084C21.5362 92.459 22.1264 91.8688 22.1264 91.141V66.3633C22.1264 65.6355 21.5362 65.0453 20.8084 65.0453Z" stroke="#004F97" stroke-width="2.5" stroke-miterlimit="10" stroke-linecap="round" stroke-linejoin="round"/>
<path d="M56.3682 66.835H43.1273C42.7773 66.835 42.5316 66.5438 42.5385 66.2326V55.4863C42.5385 54.1894 41.4901 53.1327 40.193 53.1284H40.1808C38.8768 53.1284 37.6918 53.8826 37.14 55.0641C35.8936 57.7338 36.2712 60.6758 32.3607 64.5674C30.4318 66.487 27.8034 67.538 25.082 67.538H22.1172V90.6383H23.7814C25.7093 90.6383 27.6068 91.1158 29.3049 92.0282C31.0031 92.9406 32.9008 93.418 34.8285 93.418H51.8289C53.6642 93.418 55.1518 91.9304 55.1518 90.0952C55.1518 88.2602 53.6642 86.7723 51.8289 86.7723H53.342C55.1772 86.7723 56.665 85.2845 56.665 83.4493C56.665 81.6143 55.1772 80.1266 53.342 80.1266H54.8552C56.6904 80.1266 58.178 78.6388 58.178 76.8036C58.178 74.9685 56.6904 73.4809 54.8552 73.4809H56.3682C58.2034 73.4809 59.6912 71.9931 59.6912 70.158C59.6912 68.3228 58.2034 66.835 56.3682 66.835Z" stroke="#004F97" stroke-width="2.5" stroke-miterlimit="10" stroke-linecap="round" stroke-linejoin="round"/>
<path d="M72.0726 27.0007C72.0726 41.2226 60.5434 52.752 46.3213 52.752C32.0995 52.752 20.5703 41.2226 20.5703 27.0007C20.5703 12.7788 32.0995 1.24949 46.3213 1.24949C60.5434 1.24949 72.0726 12.7788 72.0726 27.0007Z" stroke="#004F97" stroke-width="2.5" stroke-miterlimit="10" stroke-linecap="round" stroke-linejoin="round"/>
<path d="M46.3163 52.7503C45.033 52.7503 43.7722 52.6551 42.5392 52.4739V55.4853V66.2316C42.5323 66.5427 42.778 66.834 43.128 66.834H50.0933V52.4739C48.8603 52.6551 47.5995 52.7503 46.3163 52.7503Z" stroke="#004F97" stroke-width="2.5" stroke-miterlimit="10" stroke-linecap="round" stroke-linejoin="round"/>
<path d="M52.0628 27.3619C51.8518 27.152 51.8518 26.8108 52.0628 26.6008C54.9803 23.7002 57.4363 21.2582 58.07 20.6281C59.514 19.1923 59.647 16.8535 58.2726 15.3516C56.8052 13.7483 54.3064 13.7042 52.7827 15.2197L46.699 21.2686C46.4878 21.4786 46.1452 21.4781 45.934 21.2681L39.9019 15.2705C38.4579 13.8347 36.1057 13.7025 34.5951 15.069C32.9826 16.5281 32.9382 19.0124 34.4624 20.5276L40.5712 26.6015C40.7824 26.8112 40.7824 27.1515 40.5712 27.3614L34.4624 33.4351C32.9382 34.9503 32.9826 37.4349 34.5951 38.8937C36.1057 40.2602 38.4579 40.128 39.9019 38.6925L45.934 32.6946C46.1452 32.4849 46.4878 32.4841 46.699 32.6941L52.7827 38.7431C54.3064 40.2585 56.8052 40.2147 58.2726 38.6111C59.647 37.1092 59.514 34.7704 58.07 33.3346C57.4363 32.7045 54.9803 30.2628 52.0628 27.3619Z" stroke="#004F97" stroke-width="2.5" stroke-miterlimit="10" stroke-linecap="round" stroke-linejoin="round"/>
<path d="M11.7189 94.9805H13.4024C14.4428 94.9805 15.2863 94.1369 15.2863 93.0964V64.4067C15.2863 63.3662 14.4428 62.5226 13.4024 62.5226H3.13409C2.09355 62.5226 1.25 63.3662 1.25 64.4067V93.0964C1.25 94.1369 2.09355 94.9805 3.13409 94.9805H11.7189Z" stroke="#004F97" stroke-width="2.5" stroke-miterlimit="10" stroke-linecap="round" stroke-linejoin="round"/>
</svg>
